<svg xmlns="http://www.w3.org/2000/svg" width="300" height="300" version="1.1">
<path d="M172.264 56.893C172.386 58.5985 172.386 60.3044 172.386 62.0099C172.386 114.03 132.792 173.969 60.4264 173.969C38.1319 173.969 17.4214 167.512 0 156.304C3.16762 156.67 6.213 156.792 9.5025 156.792C27.8981 156.792 44.8324 150.579 58.3552 139.98C41.0557 139.614 26.5582 128.284 21.5632 112.69C24 113.055 26.4364 113.299 28.995 113.299C32.5279 113.299 36.0611 112.812 39.3502 111.959C21.3199 108.304 7.79662 92.4667 7.79662 73.3398V72.8526C13.035 75.7765 19.1269 77.6039 25.5832 77.8473C14.9842 70.7811 8.04037 58.7204 8.04037 45.0756C8.04037 37.7661 9.98925 31.0656 13.4006 25.2179C32.7712 49.096 61.8881 64.6896 94.5375 66.3955C93.9285 63.4716 93.5629 60.4263 93.5629 57.3805C93.5629 35.695 111.106 18.0303 132.913 18.0303C144.243 18.0303 154.476 22.7815 161.664 30.4566C170.557 28.7511 179.085 25.4616 186.639 20.9541C183.715 30.0914 177.502 37.7665 169.339 42.6393C177.258 41.7869 184.933 39.5935 191.999 36.5481C186.64 44.3448 179.939 51.2887 172.264 56.893Z"></path>

</svg>