<svg xmlns="http://www.w3.org/2000/svg" width="300" height="300" version="1.1">
<path d="M96.0657 52.8752C72.2157 52.8752 52.9782 72.1127 52.9782 95.9627C52.9782 119.813 72.2157 139.05 96.0657 139.05C119.916 139.05 139.153 119.813 139.153 95.9627C139.153 72.1127 119.916 52.8752 96.0657 52.8752ZM96.0657 123.975C80.6532 123.975 68.0532 111.413 68.0532 95.9627C68.0532 80.5127 80.6157 67.9502 96.0657 67.9502C111.516 67.9502 124.078 80.5127 124.078 95.9627C124.078 111.413 111.478 123.975 96.0657 123.975ZM150.966 51.1127C150.966 56.7002 146.466 61.1627 140.916 61.1627C135.328 61.1627 130.866 56.6627 130.866 51.1127C130.866 45.5627 135.366 41.0627 140.916 41.0627C146.466 41.0627 150.966 45.5627 150.966 51.1127ZM179.503 61.3127C178.866 47.8502 175.791 35.9252 165.928 26.1002C156.103 16.2752 144.178 13.2002 130.716 12.5252C116.841 11.7377 75.2532 11.7377 61.3782 12.5252C47.9532 13.1627 36.0282 16.2377 26.1656 26.0627C16.3031 35.8877 13.2656 47.8127 12.5906 61.2752C11.8031 75.1502 11.8031 116.738 12.5906 130.613C13.2281 144.075 16.3031 156 26.1656 165.825C36.0282 175.65 47.9157 178.725 61.3782 179.4C75.2532 180.188 116.841 180.188 130.716 179.4C144.178 178.763 156.103 175.688 165.928 165.825C175.753 156 178.828 144.075 179.503 130.613C180.291 116.738 180.291 75.1877 179.503 61.3127ZM161.578 145.5C158.653 152.85 152.991 158.513 145.603 161.475C134.541 165.863 108.291 164.85 96.0657 164.85C83.8407 164.85 57.5532 165.825 46.5282 161.475C39.1782 158.55 33.5157 152.888 30.5532 145.5C26.1656 134.438 27.1781 108.188 27.1781 95.9627C27.1781 83.7377 26.2031 57.4502 30.5532 46.4252C33.4782 39.0752 39.1407 33.4127 46.5282 30.4502C57.5907 26.0627 83.8407 27.0752 96.0657 27.0752C108.291 27.0752 134.578 26.1002 145.603 30.4502C152.953 33.3752 158.616 39.0377 161.578 46.4252C165.966 57.4877 164.953 83.7377 164.953 95.9627C164.953 108.188 165.966 134.475 161.578 145.5Z"></path>

</svg>