<svg xmlns="http://www.w3.org/2000/svg" width="300" height="300" version="1.1">
<path d="M187.988 50.1229C185.78 41.8085 179.274 35.2603 171.013 33.038C156.04 29 96 29 96 29C96 29 35.9602 29 20.9868 33.038C12.7262 35.2606 6.22019 41.8085 4.01203 50.1229C0 65.1934 0 96.6364 0 96.6364C0 96.6364 0 128.079 4.01203 143.15C6.22019 151.464 12.7262 157.74 20.9868 159.962C35.9602 164 96 164 96 164C96 164 156.04 164 171.013 159.962C179.274 157.74 185.78 151.464 187.988 143.15C192 128.079 192 96.6364 192 96.6364C192 96.6364 192 65.1934 187.988 50.1229ZM76.3635 125.184V68.0885L126.545 96.6371L76.3635 125.184Z"></path>

</svg>