<svg xmlns="http://www.w3.org/2000/svg" width="300" height="300" version="1.1">
  <path d="M174.1 58.9001C172.6 57.1001 170.3 56 168 56H147.3L117.6 26.3L106.3 37.6L124.7 56H67.3001L85.7001 37.6L74.4001 26.3L44.7001 56H24.0001C21.6001 56 19.4001 57.1001 17.9001 58.9001C16.4001 60.7001 15.7001 63.1 16.2001 65.5L32.2001 153.5C32.9001 157.3 36.101 160 40.001 160H152.001C155.901 160 159.3 157.3 160 153.5L176 65.5C176.3 63.1 175.7 60.7001 174.1 58.9001ZM145.3 144H46.7001L33.6001 72H158.4L145.3 144Z"></path>
</svg>