<?xml version="1.0" encoding="iso-8859-1"?>
<!-- Generator: Adobe Illustrator 19.0.0, SVG Export Plug-In . SVG Version: 6.00 Build 0)  -->
<svg version="1.1" id="Layer_1" xmlns="http://www.w3.org/2000/svg" xmlns:xlink="http://www.w3.org/1999/xlink" x="0px" y="0px"
	 viewBox="0 0 330 330" style="enable-background:new 0 0 330 330;" xml:space="preserve">
<path d="M150.315 18.6626H165.833L192.217 66.3165L218.602 18.6626H233.783V96.9672H221.123V36.9521L197.987 78.5097H186.111L162.975 36.9521V96.9672H150.315V18.6626Z" fill="currentColor"></path><path d="M274.621 98.3653C268.757 98.3653 263.603 97.0697 259.16 94.4784C254.756 91.9293 251.156 88.1993 248.768 83.7115C246.284 79.1248 245.042 73.8672 245.042 67.9386C245.042 61.9352 246.256 56.6216 248.684 51.9978C251.111 47.3749 254.482 43.7581 258.795 41.1475C263.109 38.5373 268.066 37.2321 273.668 37.2319C279.232 37.2319 284.022 38.5462 288.037 41.1748C292.051 43.8041 295.142 47.4864 297.308 52.2217C299.474 56.9573 300.557 62.513 300.558 68.889V72.3574H257.591C258.375 77.1305 260.308 80.8872 263.389 83.6276C266.47 86.3681 270.363 87.7384 275.069 87.7384C278.841 87.7384 282.09 87.179 284.816 86.0602C287.542 84.9418 290.1 83.2452 292.491 80.9703L299.213 89.1926C292.528 95.3087 284.33 98.3662 274.621 98.3653ZM283.864 51.9138C281.212 49.2108 277.739 47.8592 273.444 47.8589C269.261 47.8589 265.759 49.2386 262.94 51.9978C260.12 54.7581 258.337 58.4684 257.591 63.1286H288.401C288.027 58.3555 286.515 54.6173 283.864 51.9138Z" fill="currentColor"></path><path d="M315.908 48.9781H304.256V38.6303H315.908V21.5151H328.12V38.6303H345.822V48.9781H328.12V75.21C328.12 79.5721 328.867 82.6854 330.36 84.55C331.854 86.4153 334.412 87.3477 338.035 87.3472C339.401 87.3595 340.766 87.2941 342.125 87.1513C343.245 87.0208 344.477 86.8438 345.822 86.6201V96.8552C344.288 97.2981 342.725 97.6346 341.144 97.8624C339.336 98.128 337.51 98.2588 335.682 98.2536C322.498 98.2536 315.907 91.0572 315.908 76.6644L315.908 48.9781Z" fill="currentColor"></path><path d="M409.46 96.9671H397.472V88.8007C395.405 91.805 392.611 94.239 389.35 95.8767C386.063 97.5351 382.328 98.3647 378.146 98.3654C372.993 98.3654 368.427 97.0511 364.45 94.4225C360.472 91.7932 357.344 88.1762 355.066 83.5715C352.788 78.9664 351.649 73.6994 351.649 67.7706C351.649 61.8055 352.807 56.5292 355.123 51.9418C357.437 47.3558 360.64 43.7577 364.729 41.1475C368.819 38.5373 373.515 37.2321 378.818 37.2319C382.814 37.2319 386.399 38.0057 389.574 39.5533C392.705 41.0659 395.418 43.3226 397.472 46.1254V38.6303H409.46V96.9671ZM397.248 59.0451C395.941 55.727 393.877 53.1075 391.058 51.1867C388.238 49.2668 384.98 48.3066 381.283 48.3062C376.054 48.3062 371.89 50.0588 368.791 53.564C365.691 57.0693 364.141 61.8048 364.141 67.7707C364.141 73.7748 365.635 78.529 368.623 82.0333C371.61 85.5386 375.662 87.2912 380.779 87.2912C384.55 87.2912 387.911 86.3217 390.862 84.3827C393.761 82.5064 395.995 79.7669 397.248 76.5522L397.248 59.0451Z" fill="currentColor"></path><path d="M510.378 36.8688C513.757 42.965 515.447 49.947 515.448 57.8148C515.448 65.1612 513.86 71.7798 510.686 77.6706C507.511 83.5627 503.273 88.2609 497.969 91.7652C503.161 98.2903 507.512 104.778 511.022 111.23H496.569C493.897 106.183 490.884 101.325 487.551 96.6872C483.769 97.8074 479.844 98.3727 475.899 98.3654C470.146 98.3654 464.862 97.3679 460.045 95.3729C455.327 93.4457 451.055 90.571 447.496 86.9273C443.912 83.2362 441.112 78.8606 439.263 74.0629C437.319 69.1225 436.348 63.7065 436.35 57.8148C436.35 51.9233 437.321 46.5073 439.263 41.5667C441.112 36.769 443.912 32.3935 447.496 28.7023C451.055 25.0587 455.327 22.1841 460.045 20.2567C464.862 18.2623 470.146 17.2648 475.899 17.2642C483.59 17.2642 490.415 19.0074 496.372 22.494C502.268 25.9181 507.112 30.8897 510.378 36.8688V36.8688ZM453.098 72.7207C455.339 77.0274 458.43 80.3927 462.37 82.8165C466.309 85.2409 470.818 86.4528 475.899 86.4521C481.013 86.4521 485.532 85.2402 489.454 82.8165C493.377 80.3927 496.458 77.0274 498.697 72.7207C500.938 68.4139 502.059 63.4453 502.059 57.8149C502.059 52.1849 500.938 47.2163 498.697 42.9091C496.457 38.6023 493.376 35.237 489.454 32.8132C485.533 30.3902 481.015 29.1783 475.899 29.1776C470.819 29.1776 466.31 30.3895 462.37 32.8132C458.428 35.2377 455.338 38.603 453.098 42.9091C450.857 47.2159 449.737 52.1844 449.737 57.8149C449.737 63.4455 450.857 68.4141 453.098 72.7206V72.7207Z" fill="currentColor"></path><path d="M577.965 96.9672H565.92V88.5776C561.438 95.1033 555.239 98.366 547.322 98.3655C540.451 98.3655 535.176 96.2028 531.497 91.8773C527.818 87.5519 525.979 81.3621 525.979 73.3079V38.6304H538.191V71.8536C538.191 77.261 539.143 81.2601 541.047 83.851C542.954 86.4433 545.941 87.7392 550.01 87.7385C553.521 87.7385 556.64 86.8157 559.366 84.97C562.092 83.1238 564.221 80.5417 565.752 77.2235V38.6304H577.965V96.9672Z" fill="currentColor"></path><path d="M618.184 98.3653C612.321 98.3653 607.168 97.0697 602.724 94.4784C598.321 91.9293 594.72 88.1994 592.332 83.7115C589.848 79.1248 588.606 73.8672 588.606 67.9386C588.606 61.9352 589.82 56.6216 592.248 51.9978C594.674 47.3749 598.045 43.7581 602.359 41.1475C606.673 38.5373 611.63 37.2321 617.232 37.2319C622.796 37.2319 627.585 38.5462 631.6 41.1748C635.616 43.8041 638.707 47.4864 640.873 52.2217C643.038 56.9573 644.121 62.513 644.122 68.889V72.3574H601.154C601.939 77.1305 603.872 80.8872 606.953 83.6276C610.033 86.3681 613.926 87.7384 618.632 87.7384C622.404 87.7384 625.654 87.179 628.381 86.0602C631.105 84.9418 633.663 83.2452 636.055 80.9703L642.777 89.1927C636.092 95.3087 627.894 98.3662 618.184 98.3653ZM627.428 51.9138C624.776 49.2108 621.303 47.8592 617.008 47.8589C612.826 47.8589 609.324 49.2386 606.504 51.9978C603.684 54.7581 601.901 58.4684 601.154 63.1286H631.966C631.592 58.3555 630.08 54.6173 627.428 51.9138Z" fill="currentColor"></path><path d="M694.202 93.4154C689.87 96.7151 684.063 98.3651 676.781 98.3653C670.619 98.3653 665.25 97.284 660.676 95.1215C656.1 92.9593 652.692 90.0508 650.452 86.396L658.686 79.2367C660.404 81.8469 662.775 83.9163 665.801 85.445C668.826 86.9743 672.43 87.7388 676.612 87.7383C684.418 87.7383 688.321 85.4639 688.321 80.9149C688.321 78.9759 687.677 77.419 686.388 76.2443C685.099 75.0699 682.98 74.2404 680.029 73.7556L668.77 71.7975C663.466 70.8662 659.414 68.9832 656.614 66.1484C653.813 63.3158 652.413 59.6617 652.413 55.1862C652.413 49.7802 654.569 45.4361 658.882 42.1539C663.195 38.8733 669.03 37.2326 676.387 37.2319C681.729 37.2319 686.519 38.3225 690.757 40.5037C694.995 42.6851 698.142 45.5098 700.197 48.978L691.738 55.3542C690.318 53.0424 688.208 51.2151 685.408 49.8724C682.607 48.5301 679.358 47.8589 675.66 47.8589C672.186 47.8589 669.506 48.4557 667.621 49.6491C665.735 50.8426 664.792 52.5019 664.793 54.627C664.793 56.4541 665.372 57.871 666.53 58.8778C667.687 59.8842 669.629 60.6298 672.356 61.1146L685.015 63.3519C690.094 64.247 693.978 66.158 696.667 69.085C699.356 72.0126 700.7 75.6949 700.701 80.1319C700.701 85.688 698.535 90.1158 694.202 93.4154Z" fill="currentColor"></path><path d="M717.058 48.9781H705.406V38.6303H717.058V21.5151H729.271V38.6303H746.974V48.9781H729.271V75.21C729.271 79.5721 730.018 82.6854 731.511 84.55C733.005 86.4153 735.563 87.3477 739.186 87.3472C740.552 87.3595 741.917 87.2941 743.276 87.1513C744.396 87.0208 745.628 86.8438 746.974 86.6201V96.8552C745.439 97.298 743.876 97.6345 742.295 97.8624C740.487 98.128 738.662 98.2588 736.834 98.2536C723.65 98.2536 717.058 91.0572 717.058 76.6644L717.058 48.9781Z" fill="currentColor"></path><path d="M35.6801 16C35.6402 16 35.6005 16.0001 35.5605 16.0004L35.3972 29.4664C35.4346 29.466 35.4719 29.4657 35.5093 29.4657C44.3866 29.4657 51.2723 36.4542 66.2386 61.6242L67.1509 63.1565L67.2106 63.2568L75.5885 50.706L75.5305 50.6091C73.5589 47.4074 71.6649 44.4615 69.8483 41.7716C67.7415 38.655 65.7267 35.8708 63.7714 33.3849C53.8708 20.7986 45.5887 16 35.6801 16Z" fill="url(#footer.0)"></path><path d="M35.5605 16.0004C25.6038 16.0515 16.8014 22.4799 10.4452 32.3167C10.4266 32.3455 10.408 32.3744 10.3894 32.4032L22.0568 38.7437C22.0757 38.7151 22.0948 38.6863 22.1138 38.6578C25.8254 33.0782 30.4443 29.5194 35.3973 29.4664C35.4347 29.466 35.472 29.4657 35.5094 29.4657L35.6801 16C35.6401 16 35.6004 16.0001 35.5605 16.0004Z" fill="url(#footer.1)"></path><path d="M10.4453 32.3167C10.4267 32.3455 10.4081 32.3743 10.3895 32.4032C6.21283 38.8947 3.09924 46.8607 1.41656 55.4545C1.40927 55.4917 1.40201 55.5289 1.39478 55.5662L14.5026 58.6542C14.5095 58.6169 14.5164 58.5795 14.5233 58.5422C15.9244 50.9897 18.5918 43.985 22.0568 38.7437C22.0758 38.715 22.0948 38.6863 22.1138 38.6578L10.4453 32.3167Z" fill="url(#footer.2)"></path><path d="M14.5231 58.5423L1.41642 55.4546C1.40913 55.4918 1.40187 55.529 1.39463 55.5663C0.47709 60.2925 0.0102876 65.0949 0.000488281 69.909C0.000488281 69.948 0.000488281 69.9869 0.000488281 70.0258L13.4431 71.2265C13.442 71.1874 13.4409 71.1488 13.44 71.1096C13.4334 70.8304 13.43 70.5474 13.4299 70.2606C13.4366 66.3675 13.7957 62.4829 14.5026 58.6543C14.5093 58.617 14.5162 58.5795 14.5231 58.5423Z" fill="url(#footer.3)"></path><path d="M13.8519 75.4141C13.6108 74.0305 13.4741 72.6307 13.4431 71.2267C13.442 71.1875 13.4409 71.149 13.44 71.1098L0.000580138 69.9092C0.000580138 69.9481 0.000580138 69.987 0.000580138 70.0259V70.0335C-0.013622 72.8478 0.232961 75.6575 0.737178 78.4264C0.744212 78.464 0.751123 78.5008 0.758261 78.5382L13.8724 75.5262C13.8653 75.4889 13.8586 75.4514 13.8519 75.4141Z" fill="url(#footer.4)"></path><path d="M16.9146 82.3605C15.4518 80.7663 14.4165 78.4668 13.8723 75.5259C13.8654 75.4887 13.8587 75.4512 13.852 75.4138L0.737061 78.4262C0.744095 78.4637 0.751006 78.5005 0.758143 78.5379C1.74942 83.7343 3.69356 88.065 6.47754 91.3413C6.5023 91.3704 6.52714 91.3995 6.55207 91.4286L16.9927 82.4444C16.9666 82.4166 16.9405 82.3886 16.9146 82.3605Z" fill="url(#footer.5)"></path><path d="M55.7684 45.1116C47.8654 57.2148 43.0779 64.806 43.0779 64.806C32.5503 81.283 28.9082 84.9759 23.047 84.9759C20.6013 84.9759 18.558 84.1065 16.9927 82.4445C16.9666 82.4168 16.9404 82.3887 16.9146 82.3606L6.47754 91.3414C6.50229 91.3705 6.52714 91.3996 6.55207 91.4287C10.3961 95.9026 15.8222 98.385 22.5348 98.385C32.6906 98.385 39.9947 93.6046 52.9794 70.9423C52.9794 70.9423 58.3922 61.3986 62.1159 54.8245C59.8093 51.1063 57.7103 47.8871 55.7684 45.1116Z" fill="#0082FB"></path><path d="M69.855 26.0081C69.8284 26.0363 69.8012 26.0652 69.7746 26.0935C67.6333 28.405 65.6283 30.8388 63.7698 33.3825C65.7251 35.8683 67.7437 38.658 69.8505 41.7746C72.3336 37.9481 74.6513 34.8489 76.9231 32.4735C76.9499 32.4454 76.9764 32.4179 77.0033 32.39L69.855 26.0081Z" fill="url(#footer.6)"></path><path d="M108.223 24.8218C102.712 19.2623 96.14 16.0002 89.1145 16.0002C81.7065 16.0002 75.4753 20.0536 69.8549 26.0082C69.8282 26.0365 69.801 26.0653 69.7744 26.0936L76.9229 32.4737C76.9498 32.4455 76.9763 32.4181 77.0032 32.3902C80.7058 28.5449 84.2889 26.6251 88.261 26.6251H88.2609C92.5361 26.6251 96.5387 28.6345 100.005 32.1572C100.032 32.1848 100.059 32.2122 100.086 32.24L108.305 24.9045C108.278 24.8768 108.251 24.8494 108.223 24.8218Z" fill="#0082FB"></path><path d="M124.157 68.1369C123.848 50.2865 117.592 34.3285 108.305 24.9046C108.278 24.8768 108.251 24.8494 108.223 24.8218L100.005 32.1572C100.032 32.1848 100.059 32.2122 100.086 32.24C107.072 39.4049 111.864 52.7319 112.3 68.1331C112.301 68.1719 112.302 68.2106 112.303 68.2494L124.159 68.2532C124.158 68.2145 124.157 68.1757 124.157 68.1369Z" fill="url(#footer.7)"></path><path d="M124.159 68.2532C124.158 68.2144 124.157 68.1756 124.157 68.1369L112.3 68.1331C112.301 68.1718 112.302 68.2106 112.303 68.2494C112.323 68.9722 112.332 69.6994 112.332 70.431C112.332 74.6302 111.704 78.0246 110.426 80.4752C110.407 80.5115 110.388 80.548 110.369 80.5839L119.209 89.7637C119.231 89.7304 119.252 89.6973 119.274 89.6638C122.484 84.7196 124.168 77.8511 124.168 69.522C124.168 69.098 124.165 68.6751 124.159 68.2532Z" fill="url(#footer.8)"></path><path d="M110.427 80.4751C110.408 80.5114 110.388 80.5479 110.369 80.5838C109.263 82.6496 107.685 84.0273 105.623 84.6298L109.653 97.3106C110.186 97.1297 110.706 96.9266 111.211 96.7012C111.362 96.6341 111.512 96.565 111.66 96.4939C111.746 96.453 111.831 96.4115 111.916 96.3694C114.604 95.0152 116.917 93.023 118.654 90.5676C118.765 90.4137 118.875 90.2586 118.983 90.1005C119.059 89.9892 119.135 89.8769 119.209 89.7635C119.231 89.7303 119.253 89.6971 119.274 89.6636L110.427 80.4751Z" fill="url(#footer.9)"></path><path d="M103.057 84.976C101.782 85.0065 100.516 84.7604 99.3463 84.2546L95.22 97.2373C97.5392 98.0284 100.013 98.3849 102.772 98.3849C105.148 98.4073 107.511 98.0314 109.763 97.2729L105.734 84.5964C104.866 84.8562 103.963 84.9842 103.057 84.976Z" fill="url(#footer.10)"></path><path d="M94.7998 80.5357C94.7744 80.5064 94.749 80.477 94.7234 80.4473L85.2288 90.3067C85.2553 90.3351 85.2818 90.3634 85.3084 90.3916C88.6076 93.9019 91.7577 96.0795 95.3306 97.2746L99.4537 84.3015C97.948 83.6557 96.492 82.4853 94.7998 80.5357Z" fill="url(#footer.11)"></path>
</svg>
