<svg version="1.2" xmlns="http://www.w3.org/2000/svg" viewBox="0 0 747 96" width="747" height="96">
	<defs>
		<linearGradient id="g1" x1="70" y1="42.2" x2="42.3" y2="5.7" gradientUnits="userSpaceOnUse">
			<stop offset="0" stop-color="#0867df"/>
			<stop offset=".5" stop-color="#0668e1"/>
			<stop offset=".9" stop-color="#0064e0"/>
		</linearGradient>
		<linearGradient id="g2" x1="15.9" y1="18.6" x2="34.9" y2="4.1" gradientUnits="userSpaceOnUse">
			<stop offset=".1" stop-color="#0064df"/>
			<stop offset="1" stop-color="#0064e0"/>
		</linearGradient>
		<linearGradient id="g3" x1="7.8" y1="39.8" x2="15.4" y2="20.6" gradientUnits="userSpaceOnUse">
			<stop offset="0" stop-color="#0072ec"/>
			<stop offset=".7" stop-color="#0064df"/>
		</linearGradient>
		<linearGradient id="g4" x1="6.7" y1="53.7" x2="7.6" y2="41.9" gradientUnits="userSpaceOnUse">
			<stop offset=".1" stop-color="#007cf6"/>
			<stop offset="1" stop-color="#0072ec"/>
		</linearGradient>
		<linearGradient id="g5" x1="7.2" y1="60.1" x2="6.6" y2="55.4" gradientUnits="userSpaceOnUse">
			<stop offset=".1" stop-color="#007ff9"/>
			<stop offset="1" stop-color="#007cf6"/>
		</linearGradient>
		<linearGradient id="g6" x1="6.9" y1="61.3" x2="10.8" y2="69.7" gradientUnits="userSpaceOnUse">
			<stop offset=".1" stop-color="#007ff9"/>
			<stop offset="1" stop-color="#0082fb"/>
		</linearGradient>
		<linearGradient id="g7" x1="67.5" y1="20.9" x2="72.7" y2="13.7" gradientUnits="userSpaceOnUse">
			<stop offset=".3" stop-color="#007ff8"/>
			<stop offset=".9" stop-color="#0082fb"/>
		</linearGradient>
		<linearGradient id="g8" x1="107.2" y1="11.5" x2="118" y2="51.6" gradientUnits="userSpaceOnUse">
			<stop offset="0" stop-color="#0082fb"/>
			<stop offset="1" stop-color="#0081fa"/>
		</linearGradient>
		<linearGradient id="g9" x1="120.7" y1="53.1" x2="113.8" y2="67.1" gradientUnits="userSpaceOnUse">
			<stop offset=".1" stop-color="#0081fa"/>
			<stop offset="1" stop-color="#0080f9"/>
		</linearGradient>
		<linearGradient id="g10" x1="108.3" y1="74.5" x2="114.8" y2="70.1" gradientUnits="userSpaceOnUse">
			<stop offset="0" stop-color="#027af3"/>
			<stop offset="1" stop-color="#0080f9"/>
		</linearGradient>
		<linearGradient id="g11" x1="98.2" y1="75.3" x2="107.2" y2="75.3" gradientUnits="userSpaceOnUse">
			<stop offset="0" stop-color="#0377ef"/>
			<stop offset="1" stop-color="#0279f1"/>
		</linearGradient>
		<linearGradient id="g12" x1="90.4" y1="70.4" x2="96.8" y2="74.2" gradientUnits="userSpaceOnUse">
			<stop offset="0" stop-color="#0471e9"/>
			<stop offset="1" stop-color="#0377ef"/>
		</linearGradient>
		<linearGradient id="g13" x1="70.7" y1="42.5" x2="91.3" y2="68.4" gradientUnits="userSpaceOnUse">
			<stop offset=".3" stop-color="#0867df"/>
			<stop offset="1" stop-color="#0471e9"/>
		</linearGradient>
	</defs>
	<style>
		.s0 { fill: #000000 } 
		.s1 { fill: url(#g1) } 
		.s2 { fill: url(#g2) } 
		.s3 { fill: url(#g3) } 
		.s4 { fill: url(#g4) } 
		.s5 { fill: url(#g5) } 
		.s6 { fill: url(#g6) } 
		.s7 { fill: #0082fb } 
		.s8 { fill: url(#g7) } 
		.s9 { fill: url(#g8) } 
		.s10 { fill: url(#g9) } 
		.s11 { fill: url(#g10) } 
		.s12 { fill: url(#g11) } 
		.s13 { fill: url(#g12) } 
		.s14 { fill: url(#g13) } 
	</style>
	<g id="Layer">
		<path d="M96 96.199c22.1 0 40-17.9 40-40s-17.9-40-40-40-40 17.9-40 40 17.9 40 40 40zm0-64c13.2 0 24 10.8 24 24s-10.8 24-24 24-24-10.8-24-24 10.8-24 24-24zM96 112.199c-41 0-72 17-72 39.5v24.5h144v-24.5c0-22.5-31-39.5-72-39.5zm56 48H40v-8.5c0-11.1 23-23.5 56-23.5s56 12.4 56 23.5v8.5z"></path>
	</g>
</svg>